# xmcd
#
# Track frame offsets:
#	150
#	15277
#	35465
#	48002
#	73680
#	89645
#	117137
#	145817
#	168615
#	188910
#	206520
#	226052
#	247322
#	279015
#
# Disc length: 4266 seconds
# Revision: 0
# Processed by: cddbd v1.5.2PL0 Copyright (c) Steve Scherf et al.
# Submitted via: dBpowerAMP V12.0
#
DISCID=ba10a80e
DTITLE=LaVerne Butler - Blues in the City
DYEAR=1999
DGENRE=Vocal
TTITLE0=This Bitter Earth
TTITLE1=Please Send Me Someone to Love
TTITLE2=Hit the Road Jack
TTITLE3=Willow Weep for Me
TTITLE4=The Blues Are Out of Town
TTITLE5=One For My Baby
TTITLE6=Late Sunday Afternoon
TTITLE7=I'm a Fool to Want You
TTITLE8=Born to Be Blue
TTITLE9=Don't Let the Sun Catch You Crying
TTITLE10=All That I Know
TTITLE11=Since I Fell for You
TTITLE12=Backwater Blues
TTITLE13=DATA
EXTD=
EXTT0=
EXTT1=
EXTT2=
EXTT3=
EXTT4=
EXTT5=
EXTT6=
EXTT7=
EXTT8=
EXTT9=
EXTT10=
EXTT11=
EXTT12=
EXTT13=
PLAYORDER=
